<?xml version="1.0" encoding="UTF-8"?>
<!-- Generator: visioncortex VTracer 0.6.4 -->
<svg version="1.1" xmlns="http://www.w3.org/2000/svg" width="1024" height="1024">
<path d="M0 0 C3.0226 2.7096 5.4814 5.8256 8 9 C8.4035 9.5076 8.807 10.0151 9.2227 10.5381 C11.5 13.4092 13.7578 16.2949 16.0078 19.1875 C19.1349 23.1935 22.3452 27.1289 25.5625 31.0625 C30.2888 36.8483 34.8767 42.7149 39.4062 48.6562 C42.3621 52.4989 45.4311 56.2475 48.5 60 C52.4091 64.7797 56.2563 69.5895 60 74.5 C64.2621 80.0884 68.6664 85.5463 73.1133 90.9883 C76.6234 95.2894 80.0842 99.6238 83.5 104 C87.9825 109.741 92.5604 115.3989 97.1663 121.0413 C100.6389 125.3031 104.0583 129.6013 107.4375 133.9375 C112.1207 139.943 116.9508 145.8185 121.8083 151.6833 C125.4369 156.074 129.0016 160.5051 132.5 165 C137.2284 171.0743 142.1025 177.0202 147.0085 182.9517 C150.7656 187.4951 154.4787 192.0691 158.1484 196.6836 C161.7237 201.1564 165.3676 205.5736 169 210 C172.0033 213.664 175.003 217.3308 178 221 C178.7352 221.8996 178.7352 221.8996 179.4854 222.8174 C185.1973 229.8104 190.8845 236.8173 196.4375 243.9375 C206.1262 256.3405 216.2468 268.388 226.5322 280.2983 C228.5254 282.6091 230.5111 284.9264 232.4958 287.2444 C233.4955 288.4112 234.4963 289.5771 235.4983 290.7419 C238.0327 293.6903 240.5488 296.6515 243.0352 299.6406 C258.5746 318.5435 258.5746 318.5435 280 329 C280.9649 327.7625 280.9649 327.7625 281.9492 326.5 C300.4837 302.7848 319.2764 278.8832 342 259 C343.4695 257.6987 343.4695 257.6987 344.9688 256.3711 C364.5123 239.295 386.2778 225.3477 409.0815 213.0681 C409.7146 212.7156 410.3477 212.3632 411 212 C411.8367 211.5981 412.6734 211.1963 413.5354 210.7822 C416.8079 208.4158 417.6524 206.1414 419.1914 202.4258 C419.4634 201.7831 419.7354 201.1405 420.0156 200.4783 C420.8795 198.4289 421.7216 196.3714 422.5625 194.3125 C423.4095 192.2782 424.2609 190.2458 425.1141 188.2141 C425.6626 186.9041 426.207 185.5924 426.747 184.2788 C428.143 180.9075 429.6606 177.7122 431.4648 174.543 C433.3256 170.2486 432.9808 167.4027 432 163 C431.6842 161.218 431.3719 159.4354 431.0625 157.6523 C430.7106 155.747 430.3564 153.842 430 151.9375 C424.7301 123.6593 425.9341 95.8485 442 71 C458.0224 47.9457 479.7599 33.4567 507 27 C524.1416 24.192 544.5551 24.0112 561 30 C562.1382 30.3854 563.2765 30.7709 564.4492 31.168 C570.9239 33.4916 576.7903 36.3773 582.6602 39.9609 C584.9034 41.1927 584.9034 41.1927 587.1367 40.7617 C589.1963 39.9663 589.1963 39.9663 591.75 38.4375 C597.2455 36.0068 601.8688 36.326 607.375 38.375 C620.3465 44.8049 628.0836 58.9485 633 72 C633.831 78.4608 633.7784 84.4778 630 90 C629.34 90.66 628.68 91.32 628 92 C628.1267 94.0295 628.1267 94.0295 628.75 96.25 C628.9305 96.9977 629.1109 97.7453 629.2969 98.5156 C629.5289 99.3355 629.7609 100.1553 630 101 C630.2694 101.9848 630.5388 102.9697 630.8164 103.9844 C632.1414 107.3604 633.7574 109.3231 636.1875 112 C639.4261 115.718 641.5138 118.953 643.2656 123.5659 C644.5199 126.7625 645.8951 129.2784 648 132 C652.0658 133.7322 655.8582 134.4122 660.1953 135.1016 C683.5146 138.9129 706.3908 153.9969 723 170 C723.5827 170.5569 724.1653 171.1137 724.7656 171.6875 C727.2552 174.3139 728.0081 175.578 727.9375 179.25 C727 182 727 182 725 184 C722.4782 184.6802 719.9891 185.2705 717.4375 185.8125 C711.3638 187.1669 705.3928 188.695 699.4375 190.5 C689.1002 193.6119 678.6701 196.2076 668.1321 198.5464 C666.5942 198.8886 665.0575 199.2365 663.5222 199.5903 C660.0872 200.3726 656.7569 201.0299 653.2539 201.4609 C648.1801 202.1766 645.1106 202.77 641.6016 206.6562 C639.4477 210.0192 637.6811 213.3788 636 217 C635.4973 218.0583 634.9945 219.1166 634.4766 220.207 C633.1887 223.1066 632.0528 226.0078 631 229 C630.7538 229.6987 630.5076 230.3973 630.2539 231.1172 C625.9549 246.3566 629.8884 262.736 632.7773 277.8552 C642.2461 327.4411 631.6564 378.2919 603.9182 420.4463 C598.5884 428.2745 592.5951 435.474 586.2969 442.5356 C584.5802 444.474 582.9206 446.4594 581.25 448.4375 C577.8059 452.3441 573.9847 455.6587 570 459 C569.1956 459.7154 568.3913 460.4309 567.5625 461.168 C547.0204 479.0547 510.5143 505 482 505 C481.7345 505.5633 481.4689 506.1266 481.1953 506.707 C475.6799 517.2872 467.7677 526.273 458 533 C466.053 542.8453 474.1744 552.6195 482.4883 562.2456 C484.1117 564.1296 485.7284 566.0192 487.3438 567.9102 C487.8927 568.5525 488.4417 569.1949 489.0073 569.8567 C490.0615 571.0905 491.1152 572.3247 492.1685 573.5593 C494.0597 575.7698 495.942 577.942 498 580 C500.5935 580.1973 503.0889 580.2769 505.6836 580.2734 C507.2676 580.2938 508.8516 580.3146 510.4355 580.3359 C512.9235 580.3584 515.4111 580.3749 517.8992 580.3809 C530.3714 580.4309 542.3494 581.0032 552 590 C555.0872 593.5503 556.033 595.0112 555.875 599.75 C555 603 555 603 553 605 C549.6282 605.5289 547.1435 605.8164 544.2656 603.7617 C543.1655 602.7449 542.0957 601.6939 541.0664 600.6055 C535.5497 596.3193 529.3017 595.5477 522.5625 595.4883 C521.797 595.4703 521.0314 595.4524 520.2427 595.4339 C517.8285 595.3803 515.4145 595.346 513 595.3125 C511.3502 595.2793 509.7005 595.2448 508.0508 595.209 C504.034 595.1246 500.0173 595.0575 496 595 C496.6626 596.0764 497.3252 597.1527 498.0078 598.2617 C499.8689 601.285 499.9997 602.0102 499.875 605.8125 C499 609 499 609 497 611 C491.9051 611.7517 491.9051 611.7517 489 611 C487.5126 609.3938 486.5312 607.6976 485.4102 605.8203 C481.8904 601.2768 475.433 599.9129 470 599 C467.7941 598.8954 465.5855 598.8417 463.3772 598.823 C462.7326 598.8164 462.088 598.8099 461.4239 598.8031 C459.3047 598.7835 457.1856 598.7717 455.0664 598.7617 C454.3393 598.7576 453.6122 598.7536 452.8631 598.7494 C449.0177 598.7286 445.1723 598.7142 441.3269 598.7048 C437.3646 598.6938 433.4029 598.6593 429.4409 598.6197 C426.3842 598.5935 423.3276 598.5851 420.2708 598.5816 C418.8104 598.5767 417.35 598.5651 415.8897 598.5465 C413.8434 598.5221 411.7986 598.5231 409.7522 598.53 C408.5904 598.5242 407.4285 598.5183 406.2315 598.5123 C401.3664 599.2466 398.2351 601.5657 395.0625 605.25 C393 607 393 607 389.4375 607.4375 C386 607 386 607 384.0625 605.875 C382.4542 603.0369 382.5581 601.2196 383 598 C386.1674 591.6652 391.4624 587.3153 398.0469 584.8672 C403.0851 583.5451 408.258 583.5368 413.4375 583.375 C414.9641 583.317 414.9641 583.317 416.5215 583.2578 C419.0141 583.1642 421.5068 583.0785 424 583 C418.0208 575.2553 411.923 567.666 405.5054 560.2798 C401.336 555.4552 397.3766 550.4854 393.4766 545.4414 C390.079 541.0511 388.1783 538.9449 382.875 537.3125 C373.6685 534.0391 367.4093 527.672 363 519 C361.9947 515.8833 361.1012 512.7886 360.3477 509.6016 C358.4281 505.8959 355.7484 505.2703 352 504 C350.193 503.3082 348.3885 502.6097 346.5859 501.9062 C345.088 501.3283 345.088 501.3283 343.5598 500.7388 C329.6455 495.3266 314.9558 489.6084 302.8555 480.6797 C298.89 478.347 295.4939 478.4434 291.0065 479.4449 C288.8166 480.0733 286.6578 480.7651 284.4961 481.4844 C283.2956 481.8697 283.2956 481.8697 282.0708 482.2628 C279.5232 483.0823 276.9803 483.9155 274.4375 484.75 C271.1041 485.8319 267.769 486.9087 264.4336 487.9844 C263.6171 488.2481 262.8006 488.5119 261.9594 488.7837 C249.4136 492.8194 236.695 496.2087 223.9375 499.5 C223.1716 499.6976 222.4058 499.8953 221.6167 500.0989 C210.2462 503.0214 198.887 505.6741 187.3013 507.6104 C184.9032 508.0164 182.5125 508.455 180.1211 508.8984 C161.4266 512.3028 161.4266 512.3028 156 511 C153.5681 508.7491 153.046 507.3978 152.6641 504.0977 C154.4842 487.3147 172.774 471.0422 184.875 461.0625 C189.6958 457.1904 189.6958 457.1904 192.2031 455.6211 C194.7113 453.3583 195.0545 451.2507 195.875 448 C200.4611 432.1841 211.2961 418.2853 223.8047 407.6758 C225.2259 406.0371 225.2259 406.0371 224.9492 403.7461 C223.7061 400.1497 221.8735 397.0045 219.9375 393.75 C215.4628 386.0324 211.6103 378.1105 207.9321 369.9878 C207.6245 369.3318 207.3169 368.6758 207 368 C206.5881 367.0107 206.1763 366.0215 205.752 365.0022 C203.6597 361.4168 201.84 360.2473 198.2422 358.2227 C197.3858 357.731 197.3858 357.731 196.512 357.2295 C194.6409 356.1592 192.7582 355.1114 190.875 354.0625 C189.5534 353.3103 188.2328 352.5562 186.9133 351.8003 C184.2256 350.2612 181.5345 348.7282 178.8413 347.1987 C173.4021 344.0984 168.0439 340.8657 162.6875 337.625 C155.8428 333.4977 148.986 329.3927 142.1016 325.332 C126.554 316.159 111.0949 306.9082 96 297 C95.3383 296.5658 94.6767 296.1317 93.995 295.6844 C89.3269 292.6191 84.6662 289.5427 80.0116 286.4569 C78.4526 285.4236 76.8928 284.3915 75.3322 283.3607 C67.1738 277.9665 59.1266 272.464 51.293 266.6055 C50.6507 266.1256 50.0084 265.6458 49.3467 265.1515 C43.1897 260.4894 37.5578 255.3638 32 250 C31.077 249.1402 30.1541 248.2804 29.2031 247.3945 C14.1295 232.981 1.3173 214.688 0.5625 193.1875 C0.697 187.7966 1.2255 184.8793 5 181 C6.3146 180.2971 7.6457 179.6231 9 179 C5.9768 174.4153 2.916 169.8805 -0.3125 165.4375 C-13.5485 146.5667 -23.2091 125.4994 -21 102 C-19.7684 96.6946 -18.1573 92.4075 -14.6875 88.1875 C-12.6885 86.1027 -12.6885 86.1027 -13.2148 83.3086 C-14.0831 79.65 -15.3955 76.3156 -16.875 72.875 C-23.8301 56.108 -27.8693 35.4606 -21 18 C-17.4533 9.6391 -11.1251 -4.3628 0 0 Z " fill="#060606" transform="translate(160,193)"/>
<path d="M0 0 C2.9977 2.7653 5.3392 5.6315 7.5586 9.0234 C7.9592 9.6116 8.3597 10.1997 8.7725 10.8057 C12.8927 16.9711 16.4478 22.3199 15.5586 30.0234 C9.2636 44.1675 -4.2925 54.262 -18.2539 60.1484 C-21.8177 61.7471 -21.8177 61.7471 -22.4414 65.6484 C-22.4414 66.7622 -22.4414 67.8759 -22.4414 69.0234 C-22.4414 69.6834 -22.4414 70.3434 -22.4414 71.0234 C-21.8471 71.1704 -21.2529 71.3173 -20.6406 71.4688 C-9.2229 74.5584 -0.3714 80.3913 8.5586 88.0234 C8.0097 92.9189 6.5031 96.4476 4.1836 100.7734 C-6.5826 121.4665 -4.2828 143.5723 0.3203 165.6821 C2.4887 176.3759 3.0249 186.7352 2.9497 197.6338 C2.9336 200.3892 2.9496 203.1431 2.9688 205.8984 C2.9902 222.1673 1.1363 237.7006 -3.9414 253.2109 C-4.2366 254.1552 -4.5318 255.0994 -4.8359 256.0723 C-6.5376 261.4584 -8.4101 266.7532 -10.4414 272.0234 C-27.1879 272.9163 -38.4794 269.3118 -51.4883 258.2891 C-68.0145 242.8205 -77.3816 220.8571 -85.9758 200.3926 C-88.4994 194.3963 -91.0044 188.5608 -94.4414 183.0234 C-95.1014 184.0134 -95.7614 185.0034 -96.4414 186.0234 C-96.3589 184.9509 -96.2764 183.8784 -96.1914 182.7734 C-96.2359 170.1679 -103.7393 157.024 -112.2031 148.082 C-128.4559 133.134 -149.1648 131.2305 -170.2324 131.8442 C-213.848 134.2799 -259.5975 162.0668 -293.0391 188.1914 C-295.76 190.2664 -298.5791 192.1498 -301.4414 194.0234 C-300.1509 190.8559 -298.3579 188.8907 -295.9377 186.5203 C-294.301 184.883 -292.731 183.1964 -291.1641 181.4922 C-279.7181 169.0642 -267.7992 157.4044 -254.4414 147.0234 C-253.4019 146.2077 -253.4019 146.2077 -252.3413 145.3755 C-240.2306 135.9142 -227.7767 127.6451 -214.4414 120.0234 C-211.8025 118.5085 -209.1643 116.9924 -206.5276 115.4736 C-204.8945 114.5352 -203.2584 113.6019 -201.6189 112.6748 C-200.881 112.2536 -200.1431 111.8324 -199.3828 111.3984 C-198.7403 111.0349 -198.0978 110.6714 -197.4358 110.2969 C-192.3905 107.0754 -189.8101 104.5006 -187.5391 98.8945 C-187.0408 97.6938 -186.5426 96.493 -186.0293 95.2559 C-185.5199 93.9913 -185.0114 92.7263 -184.5039 91.4609 C-180.9389 82.6868 -177.1925 74.229 -172.4414 66.0234 C-161.7091 74.3662 -158.7328 83.9951 -155.4453 96.9141 C-152.4418 110.3013 -152.4418 110.3013 -143.4414 120.0234 C-136.7722 123.8344 -129.5444 124.1817 -122.0664 122.4844 C-114.8167 119.9854 -111.0934 116.1675 -107.7539 109.3984 C-101.9089 97.3714 -101.4721 84.6935 -101.0039 71.5234 C-99.4062 33.7186 -99.4062 33.7186 -89.4414 21.0234 C-88.9851 20.4318 -88.5287 19.8401 -88.0586 19.2305 C-73.7955 2.9964 -19.9299 -11.4467 0 0 Z " fill="#1C2021" transform="translate(778.44140625,304.9765625)"/>
<path d="M0 0 C4.3684 3.601 6.0735 8.0518 8.25 13.125 C8.642 14.0137 9.0341 14.9025 9.438 15.8181 C11.3163 20.0827 13.1563 24.3627 14.9766 28.6523 C22.0974 45.2982 30.44 60.8217 43 74 C43.6523 74.6935 44.3045 75.387 44.9766 76.1016 C53.2876 84.1297 64.8173 88.9567 76.1875 89.5625 C77.3119 89.6273 77.3119 89.6273 78.459 89.6934 C80.3058 89.7992 82.1529 89.9001 84 90 C70.5525 120.6304 49.6606 147.7788 22 167 C20.9752 167.7193 19.9504 168.4386 18.8945 169.1797 C1.5347 180.8359 -17.1576 189.5301 -37 196 C-38.1563 196.3957 -39.3126 196.7915 -40.5039 197.1992 C-56.6106 202.2993 -74.7983 205.7212 -91.7109 205.9648 C-93.4899 205.9922 -95.2685 206.0374 -97.0469 206.0898 C-114.1497 206.5735 -130.272 205.6564 -147 202 C-148.0528 201.7757 -148.0528 201.7757 -149.127 201.5469 C-153.4913 200.5879 -157.7525 199.3777 -162 198 C-163.1928 197.614 -163.1928 197.614 -164.4097 197.2202 C-175.3934 193.5918 -185.9384 189.3104 -196.3125 184.1875 C-197.2678 183.7195 -198.2231 183.2515 -199.2073 182.7693 C-200.0838 182.3234 -200.9602 181.8774 -201.8633 181.418 C-202.6397 181.0238 -203.4161 180.6295 -204.2161 180.2234 C-206 179 -206 179 -207 176 C-206.4248 175.7902 -205.8497 175.5804 -205.2571 175.3643 C-115.373 142.5737 -115.373 142.5737 -38 88 C-36.9385 87.0351 -36.9385 87.0351 -35.8555 86.0508 C-11.6389 63.3139 -1.0865 32.3714 0 0 Z " fill="#FDFEFD" transform="translate(683,487)"/>
<path d="M0 0 C0.8663 0.2668 1.7325 0.5337 2.625 0.8086 C10.9309 3.6574 18.005 9.0588 22 17 C23.5364 24.618 21.0341 30.639 17 37 C14.8247 40.1518 12.5011 43.1011 10 46 C9.5011 46.5827 9.0023 47.1653 8.4883 47.7656 C-13.0982 71.0378 -47.9029 80.5015 -78 86 C-79.1653 86.2243 -80.3306 86.4486 -81.5312 86.6797 C-115.4422 92.605 -150.2565 90.8447 -184 85 C-184 81 -184 81 -182.707 79.4648 C-182.0818 78.9608 -181.4566 78.4568 -180.8125 77.9375 C-180.0752 77.3304 -179.3378 76.7232 -178.5781 76.0977 C-177.302 75.0593 -177.302 75.0593 -176 74 C-174.5503 72.7485 -173.1006 71.4969 -171.6528 70.2432 C-130.981 35.2531 -57.6012 -20.2834 0 0 Z " fill="#FCFCFC" transform="translate(640,453)"/>
<path d="M0 0 C0.8844 2.4506 1.0995 3.6893 0.2942 6.2039 C-0.0955 6.9964 -0.4852 7.7889 -0.8867 8.6055 C-1.3243 9.4982 -1.7618 10.391 -2.2126 11.3108 C-2.9427 12.7348 -2.9427 12.7348 -3.6875 14.1875 C-4.1864 15.1684 -4.6854 16.1493 -5.1995 17.1599 C-12.4856 31.1358 -21.5439 43.3055 -32.5693 54.5342 C-33.9341 55.9325 -35.2687 57.3602 -36.6016 58.7891 C-44.3055 66.8654 -52.9688 73.4806 -62 80 C-62.6186 80.4473 -63.2372 80.8946 -63.8745 81.3555 C-85.6765 96.9241 -110.7337 109.2086 -136 118 C-127.3075 120.9623 -118.6364 123.4491 -109.625 125.25 C-108.8184 125.4127 -108.0117 125.5755 -107.1807 125.7432 C-95.7193 127.9475 -84.4112 128.215 -72.7722 128.2402 C-70.0998 128.2499 -67.4281 128.2809 -64.7559 128.3125 C-52.8979 128.386 -41.632 127.29 -30 125 C-28.8842 124.7809 -27.7685 124.5617 -26.6189 124.3359 C-11.7343 121.1834 2.1738 116.3038 16 110 C16.7422 109.6621 17.4844 109.3242 18.249 108.9761 C35.1377 101.1624 49.9019 91.0963 64 79 C64.5783 78.5135 65.1566 78.0271 65.7524 77.5259 C72.9191 71.476 78.4563 65.2715 83 57 C83.66 57.66 84.32 58.32 85 59 C71.4781 80.2068 54.7691 99.5677 34 114 C32.9752 114.7193 31.9504 115.4386 30.8945 116.1797 C13.5347 127.8359 -5.1576 136.5301 -25 143 C-26.1563 143.3957 -27.3126 143.7915 -28.5039 144.1992 C-44.6106 149.2993 -62.7983 152.7212 -79.7109 152.9648 C-81.4899 152.9922 -83.2685 153.0374 -85.0469 153.0898 C-102.1497 153.5735 -118.272 152.6564 -135 149 C-136.0528 148.7757 -136.0528 148.7757 -137.127 148.5469 C-141.4913 147.5879 -145.7525 146.3777 -150 145 C-151.1928 144.614 -151.1928 144.614 -152.4097 144.2202 C-163.3934 140.5918 -173.9384 136.3104 -184.3125 131.1875 C-185.2678 130.7195 -186.2231 130.2515 -187.2073 129.7693 C-188.0838 129.3234 -188.9602 128.8774 -189.8633 128.418 C-190.6397 128.0238 -191.4161 127.6295 -192.2161 127.2234 C-194 126 -194 126 -195 123 C-194.4248 122.7902 -193.8497 122.5804 -193.2571 122.3643 C-103.373 89.5737 -103.373 89.5737 -26 35 C-25.2923 34.3568 -24.5846 33.7135 -23.8555 33.0508 C-13.9573 23.7574 -6.4627 11.8447 0 0 Z " fill="#D5D9DC" transform="translate(671,540)"/>
<path d="M0 0 C3.3794 3.1484 5.961 6.6498 8.5625 10.4375 C13.2095 17.0657 18.2478 23.231 23.5571 29.335 C25.0527 31.0608 26.5337 32.7982 28.0117 34.5391 C33.4875 40.9817 39.0514 47.318 44.7656 53.5508 C46.7256 55.6992 48.6534 57.8688 50.5625 60.0625 C57.0913 67.563 63.8065 74.8908 70.5618 82.1868 C73.5268 85.3925 76.4651 88.6189 79.375 91.875 C83.2318 96.1822 87.1716 100.4068 91.125 104.625 C95.2228 108.9984 99.2707 113.3931 103.1836 117.9336 C107.1663 122.4644 111.3047 126.8581 115.4062 131.2812 C122.2088 138.6174 128.989 145.9688 135.668 153.418 C139.8888 158.0913 144.1739 162.7055 148.4517 167.3267 C150.9704 170.0487 153.485 172.7745 156 175.5 C159.011 178.7624 162.0224 182.0244 165.0352 185.2852 C170.7227 191.4419 176.3994 197.6076 182.043 203.8047 C184.2597 206.2206 186.5221 208.5877 188.8008 210.9453 C189.4455 211.6184 190.0902 212.2914 190.7544 212.9849 C192.022 214.3062 193.2974 215.62 194.5815 216.9253 C195.4442 217.8285 195.4442 217.8285 196.3242 218.75 C196.8407 219.2811 197.3572 219.8122 197.8894 220.3594 C199 222 199 222 199 226 C195.0827 224.3481 192.1091 221.6958 188.9375 218.9375 C187.7702 217.9354 186.6022 216.9341 185.4336 215.9336 C184.8534 215.4359 184.2731 214.9381 183.6753 214.4253 C181.3121 212.4147 178.9086 210.4559 176.5 208.5 C171.8947 204.7515 167.358 200.9292 162.8337 197.0837 C159.4405 194.2045 156.0173 191.368 152.5625 188.5625 C145.3178 182.6618 138.2651 176.5385 131.1885 170.4385 C129.3974 168.8954 127.6054 167.3535 125.8125 165.8125 C125.2297 165.3115 124.6469 164.8104 124.0464 164.2942 C120.5116 161.2656 116.933 158.3013 113.3125 155.375 C108.6183 151.5674 104.1711 147.5393 99.7266 143.4453 C97.1738 141.1559 94.559 139.0076 91.875 136.875 C86.0292 132.1647 80.6164 127.03 75.189 121.8472 C71.1233 117.9689 66.9848 114.2118 62.739 110.5317 C60.1052 108.2119 57.686 105.7105 55.25 103.1875 C53.2902 101.2821 51.2839 99.5096 49.2109 97.7305 C45.0898 94.1481 41.333 90.3166 37.625 86.3125 C36.9751 85.6126 36.3251 84.9127 35.6555 84.1917 C16.8128 63.7719 -3.6833 37.9093 -3.2695 8.7188 C-2.9144 5.137 -1.9813 2.9719 0 0 Z " fill="#F9FAF9" transform="translate(156,291)"/>
<path d="M0 0 C1.3052 0.6787 1.3052 0.6787 2.6367 1.3711 C3.9612 2.0537 3.9612 2.0537 5.3125 2.75 C5.9764 3.0993 6.6402 3.4487 7.3242 3.8086 C4.9144 6.4192 2.4275 8.4407 -0.4883 10.4336 C-12.1439 19.0505 -16.5235 33.0944 -18.6758 46.8086 C-20.0374 56.4885 -20.7313 66.1712 -21.1133 75.9336 C-22.2545 103.2542 -22.2545 103.2542 -30.8008 113.3086 C-35.0857 115.5442 -38.9483 115.6809 -43.6758 114.8086 C-48.8733 111.3804 -50.2453 106.5973 -51.6758 100.8086 C-52.1187 98.5805 -52.5558 96.3512 -52.9883 94.1211 C-55.2671 83.1876 -59.3141 71.6026 -67.6758 63.8086 C-69.7215 62.572 -71.7854 61.3652 -73.8633 60.1836 C-79.2604 56.8467 -80.9891 54.0211 -82.4258 48.0586 C-83.2299 44.1644 -83.6758 40.7885 -83.6758 36.8086 C-82.0972 35.3516 -82.0972 35.3516 -79.8555 33.9961 C-79.0222 33.4843 -78.1889 32.9726 -77.3303 32.4453 C-76.4131 31.9052 -75.4958 31.3651 -74.5508 30.8086 C-73.5994 30.2375 -72.648 29.6665 -71.6677 29.0781 C-68.6821 27.3008 -65.6817 25.5514 -62.6758 23.8086 C-61.7945 23.2917 -60.9133 22.7748 -60.0054 22.2422 C-12.3732 -5.5093 -12.3732 -5.5093 0 0 Z " fill="#835536" transform="translate(686.67578125,301.19140625)"/>
<path d="M0 0 C-5.3542 15.7431 -35.7144 27.4923 -49.3438 35.4492 C-51.8461 36.9101 -54.3451 38.3766 -56.8438 39.8438 C-67.862 46.2907 -79.0313 52.4366 -90.2588 58.5103 C-92.8641 59.9261 -95.4608 61.3563 -98.0547 62.793 C-111.0141 69.9546 -124.1469 76.7537 -137.3257 83.4998 C-138.8291 84.2693 -140.3325 85.039 -141.8359 85.8086 C-142.5616 86.1801 -143.2873 86.5516 -144.035 86.9343 C-149.3176 89.6419 -154.5733 92.3969 -159.8125 95.1875 C-168.4522 99.7808 -177.2152 104.1247 -185.9751 108.4825 C-193.819 112.3859 -201.6361 116.3285 -209.375 120.4375 C-221.3765 126.8054 -233.3433 133.014 -246 138 C-244.7338 134.3691 -243.3779 132.001 -240.6562 129.293 C-239.9923 128.6279 -239.3284 127.9628 -238.6443 127.2776 C-237.9367 126.5879 -237.2291 125.8981 -236.5 125.1875 C-235.7724 124.4726 -235.0448 123.7578 -234.2952 123.0212 C-225.3741 114.34 -216.0792 107.5688 -205.3335 101.3516 C-202.7548 99.858 -200.1838 98.3515 -197.6133 96.8438 C-186.0115 90.047 -174.3688 83.3216 -162.718 76.6091 C-152.4386 70.6838 -142.1896 64.7073 -131.9458 58.7207 C-129.0261 57.0152 -126.1051 55.3119 -123.1836 53.6094 C-114.7689 48.7052 -106.3557 43.7988 -97.957 38.8672 C-95.513 37.4323 -93.069 35.9973 -90.625 34.5625 C-90.0199 34.2073 -89.4149 33.852 -88.7915 33.486 C-78.7728 27.6058 -68.7237 21.7801 -58.6489 15.9963 C-57.1618 15.1416 -57.1618 15.1416 -55.6445 14.2695 C-54.6934 13.7261 -53.7422 13.1827 -52.7622 12.6228 C-50.9331 11.5482 -49.1257 10.4357 -47.3433 9.2854 C-41.9634 5.8322 -37.8786 4.1147 -31.5 3.8125 C-29.9449 3.691 -28.3902 3.5645 -26.8359 3.4336 C-26.0454 3.3703 -25.2549 3.3069 -24.4404 3.2417 C-19.532 2.7556 -14.6898 1.8358 -9.8379 0.9641 C-6.4768 0.3709 -3.4281 0 0 0 Z " fill="#1C2021" transform="translate(579,550)"/>
<path d="M0 0 C9.8434 4.3904 16.5268 17.4598 20.4102 27.1055 C21.2929 29.9407 21.5442 32.0748 21 35 C19.3125 37.4375 19.3125 37.4375 17 39 C11.0704 38.4716 7.2309 34.9175 3 31 C1.3022 28.9282 -0.2357 26.836 -1.7109 24.6016 C-3.0054 22.6978 -3.0054 22.6978 -6 22 C-7.5186 21.908 -9.0411 21.87 -10.5625 21.875 C-11.3475 21.8724 -12.1326 21.8698 -12.9414 21.8672 C-15.0644 21.8702 -15.0644 21.8702 -17 23 C-17.6723 24.9992 -18.2631 27.0261 -18.8125 29.0625 C-21.633 38.5158 -25.6851 45.4069 -34 51 C-44.763 56.347 -57.214 59.9361 -69.0625 55.9766 C-76.3551 51.9523 -80.3761 46.1335 -83.375 38.5 C-84.5873 31.7113 -84.9041 26.0388 -81.3633 19.9062 C-74.4464 10.2345 -61.8219 5.349 -50.375 3.2461 C-41.8025 2.3578 -33.7981 2.0274 -26 6 C-25.5746 6.5259 -25.1492 7.0519 -24.7109 7.5938 C-22.0546 9.777 -19.672 9.2873 -16.3125 9.1875 C-15.133 9.1604 -13.9535 9.1334 -12.7383 9.1055 C-11.8346 9.0707 -10.931 9.0359 -10 9 C-10.0219 8.0487 -10.0438 7.0973 -10.0664 6.1172 C-10 3 -10 3 -8.9375 1.125 C-5.7217 -0.7423 -3.6632 -0.5405 0 0 Z " fill="#B89243" transform="translate(763,240)"/>
<path d="M0 0 C0.33 0 0.66 0 1 0 C1.8523 23.4379 -11.545 46.0471 -27 62.6875 C-27.9365 63.6715 -28.8739 64.6547 -29.8125 65.6367 C-32.0131 67.7934 -32.0131 67.7934 -33 70 C-33.66 70 -34.32 70 -35 70 C-35 70.66 -35 71.32 -35 72 C-51.211 87.638 -76.7588 103.8215 -99.875 104.3125 C-103 104 -103 104 -104 103 C-105.4689 86.7 -84.1093 65.9163 -74.5271 53.9417 C-73.5858 52.7449 -72.6711 51.526 -71.803 50.2751 C-68.2834 45.42 -64.0013 43.993 -58.5625 42.0625 C-56.7588 41.3793 -54.9567 40.6918 -53.1562 40 C-52.2758 39.6636 -51.3954 39.3271 -50.4883 38.9805 C-31.7496 31.5968 -12.6949 18.9997 -1.3906 2.0195 C-0.9317 1.3531 -0.4728 0.6866 0 0 Z " fill="#1C2021" transform="translate(668,497)"/>
<path d="M0 0 C5.7905 0.1114 9.0757 1.9446 13 6 C16.0916 9.3685 19.0366 12.8606 21.9883 16.3516 C32.1359 28.039 43.5553 36.4687 57 44 C54.1913 49.2162 51.0189 53.6913 47.25 58.25 C43.0594 63.4028 39.021 68.6115 35.1562 74.0156 C32.3189 77.9427 29.4108 81.8148 26.5 85.6875 C25.9586 86.408 25.4172 87.1285 24.8594 87.8708 C23.5736 89.5811 22.2869 91.2906 21 93 C17.8598 90.132 15.9967 87.4584 14.1602 83.6328 C13.4051 82.0673 13.4051 82.0673 12.6348 80.4702 C12.1159 79.3663 11.5971 78.2624 11.0625 77.125 C10.5269 75.994 9.9913 74.863 9.4395 73.6978 C1.1309 55.9465 -5.1326 37.7037 -5.25 17.9375 C-5.2706 17.0654 -5.2912 16.1934 -5.3125 15.2949 C-5.344 10.0862 -4.8996 6.5113 -2 2 C-1.34 1.34 -0.68 0.68 0 0 Z " fill="#1C2021" transform="translate(375,491)"/>
<path d="M0 0 C2.6208 1.6678 5.2411 3.3361 7.8594 5.0078 C9.8412 6.2649 11.8299 7.5113 13.8281 8.7422 C22.3932 14.0525 30.107 19.9207 37.1133 27.1719 C39.3417 29.3311 41.7048 31.2457 44.125 33.1875 C50.2093 38.0834 55.8756 43.3676 61.584 48.6885 C64.6573 51.535 67.8211 54.2728 71 57 C71.4852 57.4169 71.9703 57.8337 72.4702 58.2632 C75.4032 60.7828 78.3391 63.299 81.2773 65.8125 C83.7316 67.9123 86.182 70.0165 88.6289 72.125 C93.9318 76.6905 99.2447 81.2259 104.6875 85.625 C108.3501 88.5935 111.8553 91.6698 115.3125 94.875 C119.9197 99.1152 124.7142 102.9915 129.6606 106.8193 C134.3084 110.4254 138.8144 114.1715 143.2874 117.9912 C148.4606 122.4073 153.7187 126.7136 159 131 C158.34 131.33 157.68 131.66 157 132 C154.5041 130.7024 152.1437 129.344 149.75 127.875 C148.1955 126.9398 146.6408 126.0049 145.0859 125.0703 C144.258 124.5692 143.4301 124.0681 142.5771 123.5518 C139.1028 121.4598 135.605 119.4086 132.1074 117.3557 C114.234 106.8524 96.4891 96.211 79.3291 84.5713 C76.7988 82.8643 74.2564 81.1766 71.7109 79.4922 C9.2118 38.13 9.2118 38.13 0.3828 8.9609 C-0.1999 5.976 -0.0583 3.0303 0 0 Z " fill="#1C1F21" transform="translate(176,388)"/>
<path d="M0 0 C0.33 0.66 0.66 1.32 1 2 C0.6906 2.7012 0.3813 3.4025 0.0625 4.125 C-1.7835 9.1201 -1.58 13.3243 0.125 18.25 C2.3267 21.4792 4.6391 23.0582 8 25 C5.2679 27.1656 2.6133 28.7856 -0.5508 30.2422 C-1.46 30.6616 -2.3692 31.081 -3.3059 31.5132 C-4.2981 31.9626 -5.2903 32.412 -6.3125 32.875 C-7.8945 33.5936 -7.8945 33.5936 -9.5085 34.3267 C-34.6038 45.6358 -60.0947 55.7105 -86 65 C-86.7702 65.2769 -87.5403 65.5538 -88.3338 65.8391 C-101.2652 70.4743 -114.3019 74.6718 -127.4375 78.6875 C-129.2599 79.2477 -131.0821 79.8082 -132.9043 80.3691 C-135.5442 81.1817 -138.1845 81.9929 -140.8265 82.7986 C-144.5841 83.9444 -148.336 85.1005 -152.0708 86.3188 C-153.2347 86.6944 -154.3985 87.07 -155.5977 87.457 C-156.5839 87.7829 -157.5701 88.1088 -158.5862 88.4446 C-161 89 -161 89 -164 88 C-162.4768 87.2384 -160.9536 86.4768 -159.4304 85.7153 C-158.0294 85.0147 -156.6285 84.3139 -155.2278 83.6128 C-151.0573 81.526 -146.8841 79.4448 -142.707 77.3711 C-133.3059 72.6978 -123.9442 67.9676 -114.6699 63.0469 C-109.8422 60.488 -104.9993 57.9607 -100.1406 55.4609 C-86.3158 48.3474 -72.5562 41.1441 -58.9468 33.6235 C-56.278 32.1532 -53.6045 30.6918 -50.9288 29.2341 C-33.7248 19.8583 -16.7869 10.1042 0 0 Z " fill="#1C2021" transform="translate(551,588)"/>
<path d="M0 0 C0.7334 -0.0006 1.4668 -0.0013 2.2224 -0.002 C8.9094 0.0619 15.3061 0.908 21.875 2.1875 C19.2435 4.819 17.0403 5.0378 13.4375 5.9375 C6.6038 7.8178 0.864 10.4289 -5.125 14.1875 C-6.0531 14.765 -6.9813 15.3425 -7.9375 15.9375 C-11.6627 19.7691 -15.314 24.8697 -16.5981 30.123 C-17.4941 33.5585 -18.2462 35.5868 -21.2437 37.6357 C-24.0385 38.9638 -26.8546 40.0959 -29.75 41.1875 C-31.86 42.0466 -33.9694 42.9073 -36.0781 43.7695 C-37.1152 44.1828 -38.1522 44.5961 -39.2207 45.022 C-54.3859 51.108 -68.1218 59.3643 -81.9863 67.9375 C-84.125 69.1875 -84.125 69.1875 -85.125 69.1875 C-83.142 48.6818 -70.5356 31.1591 -55.125 18.1875 C-39.501 6.1459 -19.6065 -0.018 0 0 Z " fill="#845637" transform="translate(688.125,231.8125)"/>
<path d="M0 0 C0.6536 0.5801 0.6536 0.5801 1.3203 1.1719 C6.1619 5.4057 10.7269 9.3299 16.9375 11.3125 C24.7256 14.1003 29.4028 21.617 34.4102 27.8398 C37.3724 31.491 40.4692 35.0223 43.5625 38.5625 C58 55.1242 58 55.1242 58 57 C57.4005 57.0146 56.801 57.0292 56.1833 57.0442 C53.4341 57.1192 50.686 57.2157 47.9375 57.3125 C46.5231 57.3463 46.5231 57.3463 45.0801 57.3809 C40.7961 57.5451 37.1097 57.7084 33.1914 59.543 C29.7217 61.127 27.7582 61.6065 24 61 C21.7617 59.1992 21.7617 59.1992 19.6875 56.6875 C18.9128 55.7658 18.138 54.8441 17.3398 53.8945 C16.5677 52.9393 15.7955 51.9841 15 51 C14.3 50.1582 13.6001 49.3165 12.8789 48.4492 C11.0099 46.1892 9.1599 43.9151 7.3188 41.6323 C5.8252 39.7837 4.3251 37.9404 2.8242 36.0977 C0.0476 32.6886 -2.7222 29.274 -5.4902 25.8579 C-6.8576 24.1752 -8.2319 22.4986 -9.6094 20.8242 C-10.3364 19.9335 -11.0634 19.0427 -11.8125 18.125 C-12.4377 17.3645 -13.0629 16.6039 -13.707 15.8203 C-15 14 -15 14 -15 12 C-12.9883 10.4492 -12.9883 10.4492 -10.3125 8.6875 C-6.4283 6.054 -3.1501 3.4651 0 0 Z " fill="#F5F1E5" transform="translate(580,716)"/>
<path d="M0 0 C-2.5592 2.894 -5.4694 4.5539 -8.8203 6.4414 C-9.391 6.7649 -9.9617 7.0884 -10.5498 7.4217 C-11.7712 8.1135 -12.9939 8.8031 -14.2177 9.4907 C-16.7941 10.9385 -19.3642 12.3972 -21.9346 13.8555 C-23.2124 14.5805 -24.4905 15.3049 -25.7689 16.0289 C-30.3498 18.6243 -34.9069 21.2555 -39.4375 23.9375 C-40.0707 24.3118 -40.7038 24.6861 -41.3562 25.0718 C-42.7454 25.8933 -44.1345 26.7151 -45.5234 27.5371 C-50.9882 30.7651 -56.4629 33.9762 -61.9375 37.1875 C-62.56 37.5527 -63.1825 37.9178 -63.8238 38.2941 C-73.6892 44.0794 -83.5829 49.8136 -93.4946 55.5193 C-101.114 59.9067 -108.7183 64.3192 -116.3125 68.75 C-117.3151 69.3348 -118.3178 69.9197 -119.3508 70.5222 C-124.5638 73.5489 -124.5638 73.5489 -129.6765 76.7393 C-130.8266 77.3633 -130.8266 77.3633 -132 78 C-132.66 77.67 -133.32 77.34 -134 77 C-123.565 61.5918 -112.9363 51.8138 -96.7471 42.5752 C-93.0981 40.4829 -89.4822 38.3368 -85.8655 36.1895 C-83.0968 34.5458 -80.3244 32.9087 -77.5508 31.2734 C-73.0322 28.6089 -68.5136 25.9443 -63.9998 23.2717 C-62.204 22.213 -60.4039 21.1615 -58.5999 20.1169 C-54.0099 17.4458 -49.511 14.705 -45.1106 11.7291 C-30.1333 1.6247 -18.4475 -3.7896 0 0 Z " fill="#1D2021" transform="translate(508,557)"/>
<path d="M0 0 C2.5223 1.8814 4.2207 3.7639 5.9062 6.4219 C6.7725 7.7831 6.7725 7.7831 7.6562 9.1719 C9.9221 15.0632 9.6343 20.2447 7.3438 26.1094 C4.4407 31.9564 0.4951 35.3863 -5.5312 37.7969 C-12.3343 38.9904 -17.1352 39.1262 -23.2031 35.7578 C-27.7836 32.5212 -31.7787 27.9452 -33.0938 22.4219 C-33.7338 16.3823 -33.3231 10.6829 -30.0938 5.4219 C-21.5541 -3.968 -11.198 -7.0185 0 0 Z " fill="#020202" transform="translate(741.09375,327.578125)"/>
<path d="M0 0 C22.5081 2.6214 45.3501 12.9475 63 27 C63 27.33 63 27.66 63 28 C62.4114 27.9697 61.8228 27.9394 61.2163 27.9082 C46.4533 27.1783 31.7159 26.8907 16.9375 26.875 C15.7009 26.8713 15.7009 26.8713 14.4394 26.8674 C6.222 26.847 -1.8376 26.9401 -10 28 C-12.3534 28.0617 -14.7084 28.0873 -17.0625 28.0625 C-18.7505 28.049 -18.7505 28.049 -20.4727 28.0352 C-21.3067 28.0236 -22.1407 28.012 -23 28 C-20.1581 25.0693 -17.2597 22.3663 -14.125 19.75 C-7.7308 14.1899 -2.8892 7.9879 0 0 Z " fill="#525A61" transform="translate(805,337)"/>
<path d="M0 0 C0.6463 1.7707 1.292 3.5415 1.9375 5.3125 C2.477 6.7917 2.477 6.7917 3.0273 8.3008 C3.7089 10.1921 4.3643 12.0928 5 14 C4.2326 14.3205 3.4652 14.641 2.6746 14.9712 C-20.7982 24.826 -43.9282 35.2598 -65.2539 49.3047 C-68 51 -68 51 -70 51 C-71.1937 45.8902 -72.0365 40.9539 -70 36 C-65.5987 31.1729 -59.3551 28.3244 -53.625 25.3657 C-51.1961 24.102 -48.8309 22.7704 -46.4688 21.3867 C-9.7246 0 -9.7246 0 0 0 Z " fill="#684227" transform="translate(671,277)"/>
<path d="M0 0 C0.9926 0.1934 1.9852 0.3867 3.0078 0.5859 C18.3437 3.5424 33.3934 5.3678 49 6 C44.8266 15.23 37.4226 24.2816 28.625 29.375 C23.2729 30.6493 18.7663 30.8492 13.75 28.4375 C6.0156 21.582 3.0828 12.6192 0 3 C0 2.01 0 1.02 0 0 Z " fill="#1F2324" transform="translate(530,687)"/>
<path d="M0 0 C9.8434 4.3904 16.5268 17.4598 20.4102 27.1055 C21.2929 29.9407 21.5442 32.0748 21 35 C19.3125 37.4375 19.3125 37.4375 17 39 C11.0704 38.4716 7.2309 34.9175 3 31 C1.3022 28.9282 -0.2357 26.836 -1.7109 24.6016 C-3.0054 22.6978 -3.0054 22.6978 -6 22 C-7.5186 21.908 -9.0411 21.87 -10.5625 21.875 C-11.7401 21.8711 -11.7401 21.8711 -12.9414 21.8672 C-15.0644 21.8702 -15.0644 21.8702 -17 23 C-17.66 23.99 -18.32 24.98 -19 26 C-19.1328 25.1802 -19.2655 24.3603 -19.4023 23.5156 C-19.5789 22.438 -19.7555 21.3603 -19.9375 20.25 C-20.1115 19.1827 -20.2855 18.1153 -20.4648 17.0156 C-20.887 14.6365 -21.372 12.3308 -22 10 C-17.9472 9.0175 -14.1614 8.9184 -10 9 C-10.0619 8.0719 -10.1237 7.1438 -10.1875 6.1875 C-10 3 -10 3 -8.9375 1.125 C-5.7217 -0.7423 -3.6632 -0.5405 0 0 Z " fill="#AF8C43" transform="translate(763,240)"/>
<path d="M0 0 C2.4967 0.0101 4.9935 0.0192 7.4902 0.0273 C13.5144 0.049 19.5384 0.0822 25.5625 0.125 C25.5625 0.785 25.5625 1.445 25.5625 2.125 C20.7659 3.3367 15.9685 4.545 11.1704 5.7505 C9.5471 6.1588 7.9241 6.5679 6.3013 6.978 C-2.532 9.2096 -11.3762 11.3903 -20.2578 13.4219 C-20.992 13.5943 -21.7262 13.7667 -22.4826 13.9444 C-26.5349 14.8547 -30.2851 15.4498 -34.4375 15.125 C-36.9648 13.5156 -36.9648 13.5156 -39.375 11.375 C-43.2476 8.0707 -46.9324 5.4755 -51.4375 3.125 C-51.4375 2.795 -51.4375 2.465 -51.4375 2.125 C-34.257 0.2454 -17.2711 -0.1231 0 0 Z " fill="#4B5359" transform="translate(829.4375,370.875)"/>
<path d="M0 0 C-1.4407 7.5279 -3.87 14.4211 -6.625 21.5625 C-7.0452 22.6666 -7.4655 23.7707 -7.8984 24.9082 C-8.9268 27.6076 -9.9607 30.3048 -11 33 C-17.6159 32.0669 -17.6159 32.0669 -20.25 28.6875 C-20.9693 27.7961 -20.9693 27.7961 -21.7031 26.8867 C-24.753 22.4497 -25.9381 18.4168 -25 13 C-22.9523 8.4757 -20.6268 6.8953 -16.1875 4.8125 C-15.1704 4.3239 -14.1534 3.8354 -13.1055 3.332 C-8.553 1.3793 -4.9899 0 0 0 Z " fill="#815D22" transform="translate(715,251)"/>
<path d="M0 0 C1.4817 0.3003 2.9606 0.6146 4.4375 0.9375 C6.5622 1.2521 8.6872 1.5645 10.8125 1.875 C16.1841 2.6841 16.1841 2.6841 18.4375 4.9375 C2.1829 14.7358 -14.1458 24.413 -30.5625 33.9375 C-28.8486 29.9514 -26.1876 26.7356 -23.5 23.375 C-23.0119 22.7602 -22.5239 22.1454 -22.021 21.512 C-20.5395 19.6501 -19.0519 17.7931 -17.5625 15.9375 C-17.1286 15.3948 -16.6946 14.8521 -16.2476 14.293 C-4.7331 -0.083 -4.7331 -0.083 0 0 Z " fill="#1C1F20" transform="translate(444.5625,549.0625)"/>
<path d="M0 0 C6.2719 2.2484 6.2719 2.2484 8.9375 5 C10.8305 10.3449 11.1561 15.953 9.1211 21.3164 C5.8866 26.942 1.6394 30.9837 -4.6719 32.7461 C-7.1105 33.2455 -9.5336 33.6675 -12 34 C-10.5591 26.504 -8.1654 19.6192 -5.4375 12.5 C-5.0256 11.4043 -4.6138 10.3086 -4.1895 9.1797 C-1.1435 1.1435 -1.1435 1.1435 0 0 Z " fill="#835E24" transform="translate(727,250)"/>
<path d="M0 0 C3.3 0 6.6 0 10 0 C8.5636 7.4804 6.1696 14.3376 3.4375 21.4375 C3.0256 22.5248 2.6138 23.6121 2.1895 24.7324 C-0.8079 32.6158 -0.8079 32.6158 -2 35 C-5.3 35 -8.6 35 -12 35 C-10.5636 27.5196 -8.1696 20.6624 -5.4375 13.5625 C-5.0256 12.4752 -4.6138 11.3879 -4.1895 10.2676 C-1.1921 2.3842 -1.1921 2.3842 0 0 Z " fill="#F4DDA5" transform="translate(716,250)"/>
<path d="M0 0 C23.2875 2.7122 44.2013 13.5944 63 27 C60.0811 27.9055 59.3176 28.136 56.3906 26.8828 C54.836 26.0127 54.836 26.0127 53.25 25.125 C36.6913 16.3186 16.841 8.538 -2 7 C-1.34 4.69 -0.68 2.38 0 0 Z " fill="#899196" transform="translate(805,337)"/>
<path d="M0 0 C0.6806 0.6806 1.3613 1.3612 2.0625 2.0625 C2.5214 2.5175 2.9803 2.9726 3.4531 3.4414 C4.5209 4.5172 5.5721 5.6096 6.6094 6.7148 C10.2656 10.5471 13.825 13.3421 18.4961 15.8594 C18.9924 16.2358 19.4887 16.6122 20 17 C20 17.99 20 18.98 20 20 C10.43 20.33 0.86 20.66 -9 21 C-7.02 17.04 -5.04 13.08 -3 9 C-1.9364 6.022 -0.9087 3.0289 0 0 Z " fill="#825A3E" transform="translate(753,270)"/>
<path d="M0 0 C3.0625 -0.5625 3.0625 -0.5625 7 0 C12.7229 5.1062 16.9975 13.0162 20 20 C20 21.32 20 22.64 20 24 C12.6553 22.9944 8.1078 17.5912 3.5625 12.0625 C0.6833 8.0754 0.1738 4.8676 0 0 Z " fill="#F1DBA2" transform="translate(762,244)"/>
<path d="M0 0 C0.33 0 0.66 0 1 0 C1.1096 0.785 1.2191 1.5701 1.332 2.3789 C2.238 8.382 3.2808 13.5615 6 19 C5.2291 18.9884 4.4583 18.9768 3.6641 18.9648 C2.6612 18.9558 1.6583 18.9468 0.625 18.9375 C-0.8716 18.9201 -0.8716 18.9201 -2.3984 18.9023 C-4.9843 18.8199 -4.9843 18.8199 -7 20 C-7.66 20.99 -8.32 21.98 -9 23 C-9.1328 22.1802 -9.2655 21.3603 -9.4023 20.5156 C-9.5789 19.438 -9.7555 18.3603 -9.9375 17.25 C-10.1115 16.1827 -10.2855 15.1153 -10.4648 14.0156 C-10.887 11.6365 -11.372 9.3308 -12 7 C-7.9472 6.0175 -4.1614 5.9184 0 6 C0 4.02 0 2.04 0 0 Z " fill="#674424" transform="translate(753,243)"/>
<path d="M0 0 C0 0.99 0 1.98 0 3 C-1.5742 4.2109 -1.5742 4.2109 -3.6875 5.375 C-6.4354 6.9751 -8.6911 8.4974 -10.875 10.8125 C-11.5762 11.5344 -12.2775 12.2563 -13 13 C-13.66 13 -14.32 13 -15 13 C-16.0045 16.351 -16.1655 19.4464 -16.1875 22.9375 C-16.2017 23.9571 -16.2159 24.9768 -16.2305 26.0273 C-15.9932 29.0878 -15.1985 31.2003 -14 34 C-14 34.99 -14 35.98 -14 37 C-13.01 37.33 -12.02 37.66 -11 38 C-11 38.99 -11 39.98 -11 41 C-10.4431 41.2475 -9.8863 41.495 -9.3125 41.75 C-6.6003 43.2161 -4.3641 45.0299 -2 47 C-6.4605 46.4902 -8.7922 45.1276 -12 42 C-17.4158 34.8206 -20.2179 27.0404 -19 18 C-17.0423 11.3215 -12.5968 6.925 -7 3 C-4.6818 1.7689 -2.4834 0.8795 0 0 Z " fill="#A98E56" transform="translate(698,248)"/>
<path d="M0 0 C2 3 2 3 1.75 6.0625 C1 9 1 9 -1 11 C-4.5 11.25 -4.5 11.25 -8 11 C-10 9 -10 9 -10.3125 5.5625 C-10 2 -10 2 -8.9375 0 C-5.772 -1.6338 -3.3498 -0.8527 0 0 Z " fill="#F1F2F2" transform="translate(738,333)"/>
<path d="M0 0 C0.7514 0.0039 1.5029 0.0077 2.2771 0.0117 C9.0231 0.1146 15.4984 0.9593 22.125 2.25 C19.4367 4.9383 16.9724 5.2689 13.3125 6.25 C9.1304 7.3782 5.1116 8.549 1.125 10.25 C0.795 9.59 0.465 8.93 0.125 8.25 C3.0749 6.6722 5.6435 5.3463 8.9375 4.6875 C9.6594 4.5431 10.3813 4.3988 11.125 4.25 C11.455 3.59 11.785 2.93 12.125 2.25 C4.535 2.25 -3.055 2.25 -10.875 2.25 C-7.1625 -0.225 -4.2951 -0.0528 0 0 Z " fill="#70523E" transform="translate(687.875,231.75)"/>
<path d="M0 0 C0.66 0.33 1.32 0.66 2 1 C-5.4318 8.5848 -15.116 13.8272 -25.8906 14.0977 C-27.3438 14.0911 -28.7969 14.0792 -30.25 14.0625 C-30.9951 14.058 -31.7402 14.0535 -32.5078 14.0488 C-34.3386 14.0371 -36.1693 14.0192 -38 14 C-38 13.34 -38 12.68 -38 12 C-36.194 11.9091 -36.194 11.9091 -34.3516 11.8164 C-32.776 11.732 -31.2005 11.6474 -29.625 11.5625 C-28.8309 11.5232 -28.0369 11.4839 -27.2188 11.4434 C-22.974 11.3111 -22.974 11.3111 -19 10 C-17.0004 9.96 -14.9995 9.9565 -13 10 C-13 9.34 -13 8.68 -13 8 C-12.0306 7.7113 -11.0612 7.4225 -10.0625 7.125 C-6.8934 6.3579 -6.8934 6.3579 -6 4 C-5.34 4 -4.68 4 -4 4 C-4 3.34 -4 2.68 -4 2 C-2.125 0.9375 -2.125 0.9375 0 0 Z " fill="#A98D55" transform="translate(735,283)"/>
<path d="M0 0 C0 0.66 0 1.32 0 2 C-1.2965 2.9287 -2.6416 3.7894 -4 4.625 C-12.3359 10.2343 -19.0536 17.8011 -26 25 C-26.66 24.67 -27.32 24.34 -28 24 C-6.7541 0 -6.7541 0 0 0 Z " fill="#795740" transform="translate(644,244)"/>
<path d="M0 0 C0.6992 1.5938 0.6992 1.5938 1 4 C-0.293 7.0938 -0.293 7.0938 -2.1875 10.5 C-2.7998 11.6241 -3.4121 12.7481 -4.043 13.9062 C-5.8143 16.7065 -7.5547 18.7879 -10 21 C-10.99 20.67 -11.98 20.34 -13 20 C-12.4805 19.3104 -11.961 18.6207 -11.4258 17.9102 C-7.1456 12.1426 -3.2825 6.3914 0 0 Z " fill="#CED0D1" transform="translate(671,540)"/>
<path d="M0 0 C0.8806 3.1611 0.955 4.8486 0 8 C-0.7374 10.5195 -0.7374 10.5195 -1 13 C-0.01 14.485 -0.01 14.485 1 16 C-0.98 16.99 -2.96 17.98 -5 19 C-4.4838 12.1602 -2.5141 6.3612 0 0 Z " fill="#73543E" transform="translate(608,282)"/>
<path d="M0 0 C4.4438 1.4785 6.9162 3.6069 9.4414 7.5 C6.7961 6.5448 4.6302 5.643 2.3789 3.9375 C-1.8405 0.807 -6.7604 1.3795 -11.8086 1.4375 C-12.9262 1.4443 -12.9262 1.4443 -14.0664 1.4512 C-15.8972 1.4629 -17.7279 1.4808 -19.5586 1.5 C-14.0853 -2.1489 -6.3161 -1.2343 0 0 Z " fill="#AB925B" transform="translate(731.55859375,243.5)"/>
<path d="M0 0 C4.1983 0.4269 5.7072 1.4851 8.6875 4.375 C6.7075 4.375 4.7275 4.375 2.6875 4.375 C2.3575 5.365 2.0275 6.355 1.6875 7.375 C1.6875 5.725 1.6875 4.075 1.6875 2.375 C-0.7573 2.5633 -0.7573 2.5633 -3.3125 3.375 C-4.6727 5.3426 -4.6727 5.3426 -5.3125 7.375 C-5.4375 5 -5.4375 5 -5.3125 2.375 C-3.3125 0.375 -3.3125 0.375 0 0 Z " fill="#AA8E56" transform="translate(759.3125,239.625)"/>
</svg>
